<mxfile host="Electron" modified="2024-07-02T12:02:29.550Z" agent="Mozilla/5.0 (Windows NT 10.0; Win64; x64) AppleWebKit/537.36 (KHTML, like Gecko) draw.io/24.6.4 Chrome/124.0.6367.207 Electron/30.0.6 Safari/537.36" etag="tfFxnTj9bu-B-dL9Hsiy" version="24.6.4" type="device">
  <diagram id="C5RBs43oDa-KdzZeNtuy" name="Page-1">
    <mxGraphModel dx="1434" dy="844" grid="0" gridSize="10" guides="1" tooltips="1" connect="1" arrows="1" fold="1" page="1" pageScale="1" pageWidth="827" pageHeight="1169" math="0" shadow="0">
      <root>
        <mxCell id="WIyWlLk6GJQsqaUBKTNV-0" />
        <mxCell id="WIyWlLk6GJQsqaUBKTNV-1" parent="WIyWlLk6GJQsqaUBKTNV-0" />
        <mxCell id="JdtZpGMuM-RNvXqqjZD5-0" value="Proposal" style="ellipse;whiteSpace=wrap;html=1;fillColor=#dae8fc;strokeColor=#6c8ebf;" vertex="1" parent="WIyWlLk6GJQsqaUBKTNV-1">
          <mxGeometry x="17" y="357" width="120" height="80" as="geometry" />
        </mxCell>
        <mxCell id="JdtZpGMuM-RNvXqqjZD5-6" value="" style="edgeStyle=orthogonalEdgeStyle;rounded=0;orthogonalLoop=1;jettySize=auto;html=1;" edge="1" parent="WIyWlLk6GJQsqaUBKTNV-1" source="JdtZpGMuM-RNvXqqjZD5-1" target="JdtZpGMuM-RNvXqqjZD5-0">
          <mxGeometry relative="1" as="geometry" />
        </mxCell>
        <mxCell id="JdtZpGMuM-RNvXqqjZD5-1" value="Incubator&amp;nbsp;&lt;div&gt;Stage&lt;/div&gt;" style="ellipse;whiteSpace=wrap;html=1;fillColor=#1ba1e2;fontColor=#ffffff;strokeColor=#006EAF;" vertex="1" parent="WIyWlLk6GJQsqaUBKTNV-1">
          <mxGeometry x="173" y="357" width="120" height="80" as="geometry" />
        </mxCell>
        <mxCell id="JdtZpGMuM-RNvXqqjZD5-13" value="" style="edgeStyle=orthogonalEdgeStyle;rounded=0;orthogonalLoop=1;jettySize=auto;html=1;" edge="1" parent="WIyWlLk6GJQsqaUBKTNV-1" source="JdtZpGMuM-RNvXqqjZD5-2">
          <mxGeometry relative="1" as="geometry">
            <mxPoint x="529" y="397" as="targetPoint" />
          </mxGeometry>
        </mxCell>
        <mxCell id="JdtZpGMuM-RNvXqqjZD5-2" value="Mature&amp;nbsp;&lt;div&gt;Project&lt;/div&gt;" style="ellipse;whiteSpace=wrap;html=1;fillColor=#647687;fontColor=#ffffff;strokeColor=#314354;" vertex="1" parent="WIyWlLk6GJQsqaUBKTNV-1">
          <mxGeometry x="329" y="357" width="120" height="80" as="geometry" />
        </mxCell>
        <mxCell id="JdtZpGMuM-RNvXqqjZD5-3" value="Core&amp;nbsp;&lt;div&gt;Development&lt;/div&gt;" style="ellipse;whiteSpace=wrap;html=1;fillColor=#bac8d3;strokeColor=#23445d;" vertex="1" parent="WIyWlLk6GJQsqaUBKTNV-1">
          <mxGeometry x="485" y="357" width="120" height="80" as="geometry" />
        </mxCell>
        <mxCell id="JdtZpGMuM-RNvXqqjZD5-4" value="Archived" style="ellipse;whiteSpace=wrap;html=1;fillColor=#f5f5f5;gradientColor=#b3b3b3;strokeColor=#666666;" vertex="1" parent="WIyWlLk6GJQsqaUBKTNV-1">
          <mxGeometry x="641" y="357" width="120" height="80" as="geometry" />
        </mxCell>
        <mxCell id="JdtZpGMuM-RNvXqqjZD5-5" value="" style="shape=flexArrow;endArrow=classic;html=1;rounded=0;exitX=1;exitY=0.5;exitDx=0;exitDy=0;fillColor=#000000;strokeColor=#6c8ebf;" edge="1" parent="WIyWlLk6GJQsqaUBKTNV-1" source="JdtZpGMuM-RNvXqqjZD5-0">
          <mxGeometry width="50" height="50" relative="1" as="geometry">
            <mxPoint x="516" y="458" as="sourcePoint" />
            <mxPoint x="174" y="397" as="targetPoint" />
          </mxGeometry>
        </mxCell>
        <mxCell id="JdtZpGMuM-RNvXqqjZD5-8" value="" style="shape=flexArrow;endArrow=classic;html=1;rounded=0;exitX=1;exitY=0.5;exitDx=0;exitDy=0;fillColor=#000000;strokeColor=#6c8ebf;" edge="1" parent="WIyWlLk6GJQsqaUBKTNV-1">
          <mxGeometry width="50" height="50" relative="1" as="geometry">
            <mxPoint x="449" y="396.5" as="sourcePoint" />
            <mxPoint x="486" y="396.5" as="targetPoint" />
          </mxGeometry>
        </mxCell>
        <mxCell id="JdtZpGMuM-RNvXqqjZD5-9" value="" style="shape=flexArrow;endArrow=classic;html=1;rounded=0;exitX=1;exitY=0.5;exitDx=0;exitDy=0;fillColor=#000000;strokeColor=#6c8ebf;" edge="1" parent="WIyWlLk6GJQsqaUBKTNV-1">
          <mxGeometry width="50" height="50" relative="1" as="geometry">
            <mxPoint x="604" y="396.5" as="sourcePoint" />
            <mxPoint x="641" y="396.5" as="targetPoint" />
          </mxGeometry>
        </mxCell>
        <mxCell id="JdtZpGMuM-RNvXqqjZD5-11" value="" style="shape=flexArrow;endArrow=classic;html=1;rounded=0;exitX=1;exitY=0.5;exitDx=0;exitDy=0;fillColor=#000000;strokeColor=#6c8ebf;" edge="1" parent="WIyWlLk6GJQsqaUBKTNV-1">
          <mxGeometry width="50" height="50" relative="1" as="geometry">
            <mxPoint x="293" y="396.5" as="sourcePoint" />
            <mxPoint x="330" y="396.5" as="targetPoint" />
          </mxGeometry>
        </mxCell>
      </root>
    </mxGraphModel>
  </diagram>
</mxfile>
